<svg width="20" height="20" viewBox="0 0 20 20" fill="none" xmlns="http://www.w3.org/2000/svg">
<rect width="20" height="20" rx="10" fill="#FB6019"/>
<path d="M10.1025 8.05273C10.5036 8.05273 10.8841 8.13021 11.2441 8.28516C11.6042 8.43555 11.9163 8.64974 12.1807 8.92773C12.4495 9.20117 12.6615 9.52018 12.8164 9.88477C12.9714 10.2493 13.0488 10.6413 13.0488 11.0605C13.0488 11.4798 12.9691 11.8717 12.8096 12.2363C12.6501 12.6009 12.4313 12.9222 12.1533 13.2002C11.8799 13.4736 11.5563 13.6878 11.1826 13.8428C10.8089 13.9932 10.4033 14.0684 9.96582 14.0684C9.52832 14.0684 9.13184 14.0046 8.77637 13.877C8.4209 13.7448 8.11784 13.5671 7.86719 13.3438C7.61654 13.1204 7.41829 12.863 7.27246 12.5713C7.12663 12.2751 7.0446 11.9583 7.02637 11.6211H8.35254C8.37077 11.7806 8.4209 11.9355 8.50293 12.0859C8.58952 12.2318 8.70345 12.3662 8.84473 12.4893C8.986 12.6077 9.15234 12.7035 9.34375 12.7764C9.53516 12.8447 9.74251 12.8789 9.96582 12.8789C10.2074 12.8789 10.4352 12.8333 10.6494 12.7422C10.8636 12.6465 11.0505 12.5212 11.21 12.3662C11.3695 12.2067 11.4925 12.0153 11.5791 11.792C11.6702 11.5641 11.7158 11.3203 11.7158 11.0605C11.7158 10.8008 11.6702 10.5592 11.5791 10.3359C11.4925 10.1081 11.3695 9.91667 11.21 9.76172C11.0505 9.60221 10.8636 9.47689 10.6494 9.38574C10.4352 9.29004 10.2074 9.24219 9.96582 9.24219C9.68783 9.24219 9.44401 9.29915 9.23438 9.41309C9.0293 9.52246 8.86296 9.64323 8.73535 9.77539C8.57585 9.9349 8.44824 10.1058 8.35254 10.2881H7.23828L7.79883 5.18164H12.4883V6.43945H8.92676L8.70801 8.53809C8.81283 8.45605 8.93815 8.3763 9.08398 8.29883C9.20703 8.23503 9.35286 8.17806 9.52148 8.12793C9.69466 8.0778 9.88835 8.05273 10.1025 8.05273Z" fill="white"/>
</svg>
